# xmcd
#
# Track frame offsets:
#	150
#	25575
#	43200
#	75650
#	94937
#	116150
#	136825
#	153562
#	177750
#	202500
#	223000
#	247837
#	267912
#	292937
#
# Disc length: 4212
#
# Revision: 6
# Processed by: cddbd v1.5.1PL0 Copyright (c) Steve Scherf et al.
# Submitted via: CDex 1.51
# Normalized: r5:DSETVAR1,TDELIM( - ),TSWAP
#
DISCID=b710720e
DTITLE=Various Artist - Black Velvet CD2 192hn
DYEAR=1992
DGENRE=Soul
TTITLE0=The Pasadenas - Let's Get It On
TTITLE1=Des'ree - Feel So High
TTITLE2=Mass Order - I Wanna Be Your Love
TTITLE3=Surface - The First Time
TTITLE4=The Black Flames - Let Me Show You
TTITLE5=Terence Trent D'Arby - Sign Your Name
TTITLE6=P.M. Sampson and Double Key - We Love To Love
TTITLE7=L.L. Cool J - I Need Love
TTITLE8=The Chimes - I Still Haven't Found What I'm Looking For
TTITLE9=Dee C. Lee - See The Day
TTITLE10=Tashan - Tears Of Joy
TTITLE11=Nicole McCloud - So Lost Without Your Love
TTITLE12=Peabo Bryson - Can You Stop The Rain
TTITLE13=Full Force - Make Love To My Mind
EXTD=YEAR: 1992
EXTT0=
EXTT1=
EXTT2=
EXTT3=
EXTT4=
EXTT5=
EXTT6=
EXTT7=
EXTT8=
EXTT9=
EXTT10=
EXTT11=
EXTT12=
EXTT13=
PLAYORDER=
